<svg width="90" height="90" viewBox="0 0 90 90" fill="none" xmlns="http://www.w3.org/2000/svg">
<path d="M78.9619 38.2029L81.1843 75.4561C81.2597 76.4732 80.77 77.1512 80.5063 77.4525C80.205 77.7915 79.5646 78.3189 78.5099 78.3189H68.2267L76.3629 38.2029H78.9619ZM83.1054 23.7008L83.0677 23.7762C83.1431 24.6802 83.0677 25.6219 82.8417 26.5636L55.0807 77.5279C54.1767 81.3323 50.7866 83.969 46.8691 83.969H78.5099C83.3691 83.969 87.2112 79.8633 86.8345 75.0041L83.1054 23.7008Z" fill="#117BFF"/>
<path d="M43.3634 9.54292C43.7401 8.03622 42.7984 6.49185 41.2917 6.11517C39.785 5.77616 38.2406 6.68019 37.8641 8.18689L35.9807 15.9841H41.7814L43.3634 9.54292Z" fill="#117BFF"/>
<path d="M68.2267 9.41949C68.5657 7.87512 67.5863 6.40609 66.042 6.06708C64.5353 5.72807 63.0286 6.70743 62.6896 8.2518L60.9945 16.049H66.7953L68.2267 9.41949Z" fill="#117BFF"/>
<path d="M82.4232 21.1824C81.1802 18.169 78.2421 16.0219 74.626 16.0219H66.7912L64.6818 25.7779C64.3804 27.0962 63.2127 28.0002 61.932 28.0002C61.7437 28.0002 61.5177 28.0002 61.3294 27.9249C59.8227 27.5859 58.8433 26.0792 59.1446 24.5725L60.9904 15.9843H41.7799L39.4068 25.7779C39.1055 27.0586 37.9378 27.9249 36.6569 27.9249C36.4309 27.9249 36.2049 27.8872 35.9789 27.8496C34.4722 27.4729 33.5305 25.9662 33.9072 24.4218L35.9412 15.9466H28.2947C24.6033 15.9466 21.3262 18.3573 20.2338 21.8981L4.37575 72.9377C2.71839 78.3995 6.74881 83.9743 12.4366 83.9743H61.932C65.8495 83.9743 69.2396 81.3376 70.1436 77.5331L82.8376 26.5689C83.0636 25.6272 83.1389 24.6855 83.0636 23.7815C82.9882 22.8775 82.7999 21.9734 82.4232 21.1824ZM55.6039 64.1988H25.4696C23.9252 64.1988 22.6445 62.9181 22.6445 61.3737C22.6445 59.8293 23.9252 58.5486 25.4696 58.5486H55.6039C57.1483 58.5486 58.429 59.8293 58.429 61.3737C58.429 62.9181 57.1483 64.1988 55.6039 64.1988ZM59.3706 49.1317H29.2364C27.692 49.1317 26.4113 47.851 26.4113 46.3067C26.4113 44.7623 27.692 43.4816 29.2364 43.4816H59.3706C60.915 43.4816 62.1957 44.7623 62.1957 46.3067C62.1957 47.851 60.915 49.1317 59.3706 49.1317Z" fill="#117BFF"/>
</svg>
