<svg width="84" height="84" viewBox="0 0 84 84" fill="none" xmlns="http://www.w3.org/2000/svg">
<path d="M48.2109 31.0507H3.89047C2.31034 31.0507 1 29.7404 1 28.1602C1 26.5801 2.31034 25.2698 3.89047 25.2698H48.2109C49.791 25.2698 51.1014 26.5801 51.1014 28.1602C51.1014 29.7404 49.791 31.0507 48.2109 31.0507Z" fill="#D14D72"/>
<path d="M27.0142 61.8823H19.3063C17.7261 61.8823 16.4158 60.572 16.4158 58.9919C16.4158 57.4117 17.7261 56.1014 19.3063 56.1014H27.0142C28.5943 56.1014 29.9046 57.4117 29.9046 58.9919C29.9046 60.572 28.5943 61.8823 27.0142 61.8823Z" fill="#D14D72"/>
<path d="M52.0649 61.8823H36.6491C35.069 61.8823 33.7586 60.572 33.7586 58.9919C33.7586 57.4117 35.069 56.1014 36.6491 56.1014H52.0649C53.645 56.1014 54.9554 57.4117 54.9554 58.9919C54.9554 60.572 53.645 61.8823 52.0649 61.8823Z" fill="#D14D72"/>
<path d="M63.858 77.2981H21.002C5.66328 77.2981 1 72.6734 1 57.4888V25.8093C1 10.6247 5.66328 6 21.002 6H48.2109C49.791 6 51.1014 7.31034 51.1014 8.89047C51.1014 10.4706 49.791 11.7809 48.2109 11.7809H21.002C8.9006 11.7809 6.78093 13.8621 6.78093 25.8093V57.4503C6.78093 69.3975 8.9006 71.4787 21.002 71.4787H63.8194C75.9209 71.4787 78.0405 69.3975 78.0405 57.4503V41.7262C78.0405 40.146 79.3509 38.8357 80.931 38.8357C82.5111 38.8357 83.8215 40.146 83.8215 41.7262V57.4503C83.86 72.6734 79.1967 77.2981 63.858 77.2981Z" fill="#D14D72"/>
<path d="M80.9695 22.3793H59.7728C58.1927 22.3793 56.8823 21.069 56.8823 19.4888C56.8823 17.9087 58.1927 16.5984 59.7728 16.5984H80.9695C82.5497 16.5984 83.86 17.9087 83.86 19.4888C83.86 21.069 82.5497 22.3793 80.9695 22.3793Z" fill="#D14D72"/>
<path d="M70.3712 32.9777C68.791 32.9777 67.4807 31.6673 67.4807 30.0872V8.89047C67.4807 7.31034 68.791 6 70.3712 6C71.9513 6 73.2616 7.31034 73.2616 8.89047V30.0872C73.2616 31.6673 71.9513 32.9777 70.3712 32.9777Z" fill="#D14D72"/>
</svg>
