<svg width="84" height="84" viewBox="0 0 84 84" fill="none" xmlns="http://www.w3.org/2000/svg">
<g id="messageFrame">
<g id="messageIcon">
<path id="message" d="M63.145 1H21.715C10.2803 1 1 10.2389 1 21.6321V46.4073V50.5503C1 61.9435 10.2803 71.1824 21.715 71.1824H27.9295C29.0481 71.1824 30.5396 71.9282 31.2439 72.8396L37.4584 81.0842C40.1928 84.73 44.6672 84.73 47.4016 81.0842L53.6161 72.8396C54.4033 71.8039 55.6462 71.1824 56.9305 71.1824H63.145C74.5797 71.1824 83.86 61.9435 83.86 50.5503V21.6321C83.86 10.2389 74.5797 1 63.145 1ZM25.858 42.43C23.5379 42.43 21.715 40.5656 21.715 38.287C21.715 36.0083 23.5794 34.144 25.858 34.144C28.1367 34.144 30.001 36.0083 30.001 38.287C30.001 40.5656 28.1781 42.43 25.858 42.43ZM42.43 42.43C40.1099 42.43 38.287 40.5656 38.287 38.287C38.287 36.0083 40.1514 34.144 42.43 34.144C44.7087 34.144 46.573 36.0083 46.573 38.287C46.573 40.5656 44.7501 42.43 42.43 42.43ZM59.002 42.43C56.6819 42.43 54.859 40.5656 54.859 38.287C54.859 36.0083 56.7234 34.144 59.002 34.144C61.2807 34.144 63.145 36.0083 63.145 38.287C63.145 40.5656 61.3221 42.43 59.002 42.43Z" fill="#2687FF"/>
</g>
</g>
</svg>
