<svg width="100" height="100" viewBox="0 0 100 100" fill="none" xmlns="http://www.w3.org/2000/svg">
<g id="privacyFrame">
<g id="privacyIcon">
<path id="privacy" d="M82.5385 11.8787L55.5564 1.77267C52.7601 0.742444 48.1977 0.742444 45.4014 1.77267L18.4192 11.8787C13.219 13.841 9 19.9242 9 25.4678V65.2049C9 69.1786 11.6001 74.4278 14.7889 76.7826L41.771 96.9456C46.5297 100.527 54.33 100.527 59.0886 96.9456L86.0707 76.7826C89.2595 74.3788 91.8596 69.1786 91.8596 65.2049V25.4678C91.9086 19.9242 87.6896 13.841 82.5385 11.8787ZM67.5267 39.3513L46.4316 60.4462C45.6957 61.1821 44.7636 61.5255 43.8315 61.5255C42.8994 61.5255 41.9673 61.1821 41.2314 60.4462L33.382 52.4988C31.9593 51.0761 31.9593 48.7213 33.382 47.2986C34.8047 45.8759 37.1595 45.8759 38.5822 47.2986L43.8806 52.5969L62.3755 34.1021C63.7982 32.6794 66.153 32.6794 67.5757 34.1021C68.9984 35.5248 68.9984 37.9286 67.5267 39.3513Z" fill="#2988FF"/>
</g>
</g>
</svg>
