<svg width="5vw" height="5vh" viewBox="0 0 110 110" fill="none" xmlns="http://www.w3.org/2000/svg">
<g id="bellFrame">
<g id="bellIcon">
<g id="bellGroup">
<path id="Vector" d="M55.552 95.4351C44.5417 95.4351 33.5315 93.6867 23.0884 90.1899C19.1191 88.8196 16.0948 86.0316 14.7717 82.393C13.4013 78.7545 13.8739 74.7379 16.0475 71.1466L21.4818 62.1211C22.6158 60.2309 23.6554 56.4506 23.6554 54.2297V40.5733C23.6554 22.9949 37.9734 8.67691 55.552 8.67691C73.1305 8.67691 87.4484 22.9949 87.4484 40.5733V54.2297C87.4484 56.4033 88.488 60.2309 89.6221 62.1683L95.0091 71.1466C97.041 74.5489 97.419 78.66 96.0487 82.393C94.6783 86.1261 91.7013 88.9613 87.9682 90.1899C77.5724 93.6867 66.5622 95.4351 55.552 95.4351ZM55.552 15.765C41.8955 15.765 30.7435 26.8697 30.7435 40.5733V54.2297C30.7435 57.6792 29.3259 62.7826 27.5775 65.7596L22.1433 74.7851C21.1037 76.5335 20.8202 78.3764 21.4345 79.9358C22.0015 81.5425 23.4192 82.7711 25.3566 83.4326C45.1087 90.0482 66.0424 90.0482 85.7946 83.4326C87.4957 82.8656 88.8188 81.5897 89.4331 79.8886C90.0474 78.1874 89.9056 76.3445 88.9606 74.7851L83.5264 65.7596C81.7307 62.6881 80.3603 57.6319 80.3603 54.1824V40.5733C80.3603 26.8697 69.2557 15.765 55.552 15.765Z" fill="#3891FF"/>
<path id="Vector_2" d="M64.3398 17.0421C64.0091 17.0421 63.6783 16.9948 63.3475 16.9003C61.9771 16.5223 60.654 16.2388 59.3782 16.0498C55.3616 15.53 51.4868 15.8135 47.8482 16.9003C46.5251 17.3256 45.1076 16.9003 44.2098 15.908C43.312 14.9157 43.0284 13.498 43.5482 12.2222C45.4856 7.26053 50.2109 4 55.5978 4C60.9848 4 65.7102 7.21327 67.6476 12.2222C68.1202 13.498 67.8839 14.9157 66.9861 15.908C66.2772 16.6641 65.2849 17.0421 64.3398 17.0421Z" fill="#3891FF"/>
<path id="Vector_3" d="M55.5501 106.21C50.872 106.21 46.3356 104.32 43.028 101.012C39.7202 97.7043 37.83 93.1679 37.83 88.4897H44.9181C44.9181 91.2777 46.0521 94.0185 48.0367 96.0031C50.0214 97.9878 52.7621 99.1219 55.5501 99.1219C61.4096 99.1219 66.1823 94.3492 66.1823 88.4897H73.2704C73.2704 98.2713 65.3317 106.21 55.5501 106.21Z" fill="#3891FF"/>
</g>
</g>
</g>
</svg>
