<svg width="84" height="84" viewBox="0 0 84 84" fill="none" xmlns="http://www.w3.org/2000/svg">
<g id="clockFrame">
<g id="clockIcon">
<path id="clock" d="M42.43 1C19.6021 1 1 19.6021 1 42.43C1 65.2579 19.6021 83.86 42.43 83.86C65.2579 83.86 83.86 65.2579 83.86 42.43C83.86 19.6021 65.2579 1 42.43 1ZM60.4521 57.2205C59.872 58.2148 58.8363 58.7534 57.7591 58.7534C57.2205 58.7534 56.6819 58.6291 56.1848 58.2977L43.3415 50.6331C40.1514 48.7274 37.7898 44.5429 37.7898 40.8557V23.8694C37.7898 22.1707 39.1985 20.7621 40.8971 20.7621C42.5957 20.7621 44.0043 22.1707 44.0043 23.8694V40.8557C44.0043 42.3471 45.2472 44.5429 46.5316 45.2887L59.3749 52.9532C60.8664 53.8233 61.3635 55.729 60.4521 57.2205Z" fill="#3891FF"/>
</g>
</g>
</svg>
