<svg width="86" height="86" viewBox="0 0 86 86" fill="none" xmlns="http://www.w3.org/2000/svg">
<g id="communityFrame">
<g id="communityIcon">
<g id="community">
<path id="Vector" d="M66.4442 24.9389C66.1538 24.8974 65.8634 24.8974 65.573 24.9389C59.1423 24.7315 54.0392 19.4624 54.0392 12.9902C54.0392 6.39351 59.3912 1 66.0294 1C72.626 1 78.0196 6.35203 78.0196 12.9902C77.9781 19.4624 72.875 24.7315 66.4442 24.9389Z" fill="#0071FF"/>
<path id="Vector_2" d="M79.9799 53.6921C75.3332 56.8038 68.8195 57.9655 62.8036 57.1772C64.3802 53.7751 65.21 49.9997 65.2514 46.0168C65.2514 41.8679 64.3387 37.9265 62.5962 34.4829C68.7365 33.6532 75.2502 34.8148 79.9384 37.9265C86.4936 42.2413 86.4936 49.3358 79.9799 53.6921Z" fill="#0071FF"/>
<path id="Vector_3" d="M20.4378 24.9389C20.7282 24.8974 21.0187 24.8974 21.3091 24.9389C27.7398 24.7315 32.8429 19.4624 32.8429 12.9902C32.8429 6.35203 27.4909 1 20.8527 1C14.256 1 8.90399 6.35203 8.90399 12.9902C8.90399 19.4624 14.0071 24.7315 20.4378 24.9389Z" fill="#0071FF"/>
<path id="Vector_4" d="M20.898 46.0176C20.898 50.042 21.7693 53.8589 23.3459 57.3025C17.496 57.9248 11.3972 56.6802 6.9164 53.7345C0.361201 49.3782 0.361201 42.2836 6.9164 37.9273C11.3557 34.9401 17.6204 33.7369 23.5118 34.4008C21.8108 37.8858 20.898 41.8272 20.898 46.0176Z" fill="#0071FF"/>
<path id="Vector_5" d="M44.006 58.5446C43.6741 58.5032 43.3007 58.5032 42.9273 58.5446C35.2934 58.2957 29.1945 52.0309 29.1945 44.3141C29.236 36.4312 35.5838 30.042 43.5081 30.042C51.3909 30.042 57.7802 36.4312 57.7802 44.3141C57.7387 52.0309 51.6814 58.2957 44.006 58.5446Z" fill="#0071FF"/>
<path id="Vector_6" d="M30.5221 67.1353C24.2573 71.3256 24.2573 78.2127 30.5221 82.3616C37.6582 87.1328 49.358 87.1328 56.494 82.3616C62.7588 78.1712 62.7588 71.2841 56.494 67.1353C49.3995 62.3641 37.6997 62.3641 30.5221 67.1353Z" fill="#0071FF"/>
</g>
</g>
</g>
</svg>
