<svg width="91" height="91" viewBox="0 0 91 91" fill="none" xmlns="http://www.w3.org/2000/svg">
<g id="gearFrame">
<g id="gearGroup">
<path id="gear" d="M80.0444 32.7121C72.2399 32.7121 69.0492 27.193 72.9298 20.4234C75.172 16.4996 73.8353 11.4979 69.9115 9.25571L62.4521 4.98699C59.0457 2.96042 54.6476 4.16774 52.621 7.57409L52.1467 8.39334C48.2661 15.1629 41.8846 15.1629 37.9608 8.39334L37.4865 7.57409C35.5461 4.16774 31.1481 2.96042 27.7417 4.98699L20.2822 9.25571C16.3584 11.4979 15.0218 16.5427 17.2639 20.4665C21.1877 27.193 17.9969 32.7121 10.1925 32.7121C5.70819 32.7121 2 36.3772 2 40.9046V48.4935C2 52.9778 5.66507 56.686 10.1925 56.686C17.9969 56.686 21.1877 62.2052 17.2639 68.9748C15.0218 72.8985 16.3584 77.9003 20.2822 80.1424L27.7417 84.4112C31.1481 86.4377 35.5461 85.2304 37.5727 81.8241L38.047 81.0048C41.9277 74.2352 48.3092 74.2352 52.233 81.0048L52.7073 81.8241C54.7339 85.2304 59.1319 86.4377 62.5383 84.4112L69.9978 80.1424C73.9216 77.9003 75.2582 72.8554 73.0161 68.9748C69.0923 62.2052 72.2831 56.686 80.0875 56.686C84.5718 56.686 88.28 53.0209 88.28 48.4935V40.9046C88.2369 36.4203 84.5718 32.7121 80.0444 32.7121ZM45.1184 58.7126C37.4002 58.7126 31.1049 52.4173 31.1049 44.6991C31.1049 36.9809 37.4002 30.6856 45.1184 30.6856C52.8366 30.6856 59.1319 36.9809 59.1319 44.6991C59.1319 52.4173 52.8366 58.7126 45.1184 58.7126Z" fill="#368CF9"/>
</g>
</g>
</svg>
