<svg width="83" height="83" viewBox="0 0 83 83" fill="none" xmlns="http://www.w3.org/2000/svg">
<g id="homeIcon">
<path id="home" d="M78.1384 25.6258L49.4318 2.67703C44.9994 -0.885409 37.8331 -0.885409 33.4422 2.63561L4.73554 25.6258C1.50449 28.194 -0.566698 33.6203 0.137505 37.6799L5.64686 70.6532C6.64103 76.5353 12.2747 81.299 18.2397 81.299H64.6343C70.5579 81.299 76.2329 76.4939 77.2271 70.6532L82.7364 37.6799C83.3992 33.6203 81.328 28.194 78.1384 25.6258ZM41.437 55.1607C35.7205 55.1607 31.081 50.5212 31.081 44.8047C31.081 39.0883 35.7205 34.4488 41.437 34.4488C47.1535 34.4488 51.7929 39.0883 51.7929 44.8047C51.7929 50.5212 47.1535 55.1607 41.437 55.1607Z" fill="#2687FF"/>
</g>
</svg>
