<svg width="82" height="82" viewBox="0 0 82 82" fill="none" xmlns="http://www.w3.org/2000/svg">
<g id="profileFrame">
<g id="&#240;&#159;&#166;&#134; iconProfile">
<path id="profile" d="M64.4 6H17.6C8.981 6 2 12.942 2 21.483V60.717C2 69.258 8.981 76.2 17.6 76.2H64.4C73.019 76.2 80 69.258 80 60.717V21.483C80 12.942 73.019 6 64.4 6ZM27.35 22.263C32.303 22.263 36.359 26.319 36.359 31.272C36.359 36.225 32.303 40.281 27.35 40.281C22.397 40.281 18.341 36.225 18.341 31.272C18.341 26.319 22.397 22.263 27.35 22.263ZM42.443 59.274C42.092 59.664 41.546 59.898 41 59.898H13.7C13.154 59.898 12.608 59.664 12.257 59.274C11.906 58.884 11.711 58.338 11.75 57.792C12.413 51.24 17.639 46.053 24.191 45.429C26.258 45.234 28.403 45.234 30.47 45.429C37.022 46.053 42.287 51.24 42.911 57.792C42.989 58.338 42.794 58.884 42.443 59.274ZM68.3 59.625H60.5C58.901 59.625 57.575 58.299 57.575 56.7C57.575 55.101 58.901 53.775 60.5 53.775H68.3C69.899 53.775 71.225 55.101 71.225 56.7C71.225 58.299 69.899 59.625 68.3 59.625ZM68.3 44.025H52.7C51.101 44.025 49.775 42.699 49.775 41.1C49.775 39.501 51.101 38.175 52.7 38.175H68.3C69.899 38.175 71.225 39.501 71.225 41.1C71.225 42.699 69.899 44.025 68.3 44.025ZM68.3 28.425H48.8C47.201 28.425 45.875 27.099 45.875 25.5C45.875 23.901 47.201 22.575 48.8 22.575H68.3C69.899 22.575 71.225 23.901 71.225 25.5C71.225 27.099 69.899 28.425 68.3 28.425Z" fill="#358FFF"/>
</g>
</g>
</svg>
