<svg width="92" height="92" viewBox="0 0 92 92" fill="none" xmlns="http://www.w3.org/2000/svg">
<g id="share">
<g id="shareIcon">
<g id="shareGroup">
<path id="Vector" d="M67.0826 21.7803C75.4102 27.568 81.1563 36.77 82.3221 47.3876" stroke="#D14D72" stroke-width="6.24573" stroke-linecap="round" stroke-linejoin="round"/>
<path id="Vector_2" d="M10.9959 47.5958C12.0785 37.0196 17.7413 27.8175 25.9856 21.9882" stroke="#D14D72" stroke-width="6.24573" stroke-linecap="round" stroke-linejoin="round"/>
<path id="Vector_3" d="M30.5659 83.2793C35.3959 85.7359 40.8921 87.11 46.6799 87.11C52.2594 87.11 57.5058 85.8609 62.2109 83.5708" stroke="#D14D72" stroke-width="6.24573" stroke-linecap="round" stroke-linejoin="round"/>
<path id="Vector_4" d="M46.6799 28.1508C53.073 28.1508 58.2553 22.9684 58.2553 16.5754C58.2553 10.1825 53.073 5 46.6799 5C40.2871 5 35.1046 10.1825 35.1046 16.5754C35.1046 22.9684 40.2871 28.1508 46.6799 28.1508Z" stroke="#D14D72" stroke-width="6.24573" stroke-linecap="round" stroke-linejoin="round"/>
<path id="Vector_5" d="M16.5754 79.0326C22.9683 79.0326 28.1508 73.8499 28.1508 67.4572C28.1508 61.0641 22.9683 55.8818 16.5754 55.8818C10.1825 55.8818 5 61.0641 5 67.4572C5 73.8499 10.1825 79.0326 16.5754 79.0326Z" stroke="#D14D72" stroke-width="6.24573" stroke-linecap="round" stroke-linejoin="round"/>
<path id="Vector_6" d="M76.2846 79.0326C82.6777 79.0326 87.86 73.8499 87.86 67.4572C87.86 61.0641 82.6777 55.8818 76.2846 55.8818C69.8919 55.8818 64.7092 61.0641 64.7092 67.4572C64.7092 73.8499 69.8919 79.0326 76.2846 79.0326Z" stroke="#D14D72" stroke-width="6.24573" stroke-linecap="round" stroke-linejoin="round"/>
</g>
</g>
</g>
</svg>
