<svg width="95" height="95" viewBox="0 0 95 95" fill="none" xmlns="http://www.w3.org/2000/svg">
<g id="supportFrame">
<g id="supportIcon">
<path id="Support" d="M67.145 6H25.715C13.286 6 5 14.286 5 26.715V51.573C5 64.002 13.286 72.288 25.715 72.288V81.1126C25.715 84.427 29.4023 86.4157 32.1367 84.5513L50.573 72.288H67.145C79.574 72.288 87.86 64.002 87.86 51.573V26.715C87.86 14.286 79.574 6 67.145 6ZM46.43 56.4204C44.6899 56.4204 43.3228 55.0117 43.3228 53.3131C43.3228 51.6145 44.6899 50.2059 46.43 50.2059C48.1701 50.2059 49.5373 51.6145 49.5373 53.3131C49.5373 55.0117 48.1701 56.4204 46.43 56.4204ZM51.6502 39.2269C50.0344 40.3041 49.5373 41.0084 49.5373 42.1684V43.0385C49.5373 44.7371 48.1286 46.1457 46.43 46.1457C44.7314 46.1457 43.3228 44.7371 43.3228 43.0385V42.1684C43.3228 37.3625 46.8443 35.001 48.1701 34.0895C49.703 33.0538 50.2001 32.3495 50.2001 31.2723C50.2001 29.2008 48.5015 27.5022 46.43 27.5022C44.3585 27.5022 42.6599 29.2008 42.6599 31.2723C42.6599 32.9709 41.2513 34.3796 39.5526 34.3796C37.854 34.3796 36.4454 32.9709 36.4454 31.2723C36.4454 25.7621 40.9198 21.2877 46.43 21.2877C51.9402 21.2877 56.4146 25.7621 56.4146 31.2723C56.4146 35.9953 52.9345 38.3569 51.6502 39.2269Z" fill="#1F82FF"/>
</g>
</g>
</svg>
